# xmcd
#
# Track frame offsets:
#	150
#	14398
#	29838
#	44670
#	63869
#	85095
#	101460
#	119081
#	132447
#	146167
#	159133
#	178510
#	192458
#
# Disc length: 2776 seconds
#
# Revision: 0
# Processed by: cddbd v1.5.2PL0 Copyright (c) Steve Scherf et al.
# Submitted via: EZCDAudioConverter 1.3.4.1
#
DISCID=b90ad60d
DTITLE=Jimmy Cliff - Rebirth
DYEAR=2012
DGENRE=
TTITLE0=World Upside Down
TTITLE1=One More
TTITLE2=Cry No More
TTITLE3=Children's Bread
TTITLE4=Bang
TTITLE5=Guns Of Brixton
TTITLE6=Reggae Music
TTITLE7=Outsider
TTITLE8=Rebel Rebel
TTITLE9=Ruby Soho
TTITLE10=Blessed Love
TTITLE11=Ship Is Sailing
TTITLE12=One More [Alternate Version]
EXTD=
EXTT0=
EXTT1=
EXTT2=
EXTT3=
EXTT4=
EXTT5=
EXTT6=
EXTT7=
EXTT8=
EXTT9=
EXTT10=
EXTT11=
EXTT12=
PLAYORDER=
